<svg width="24" height="24" viewBox="0 0 24 24" fill="none" xmlns="http://www.w3.org/2000/svg">
<path d="M19.5 9.00001C18.727 9.02061 17.9773 8.73409 17.415 8.20318C16.8527 7.67226 16.5237 6.94021 16.5 6.16726C16.514 5.6154 16.6838 5.07874 16.9897 4.61926L18.8775 1.81051C18.95 1.71394 19.044 1.63557 19.1521 1.58159C19.2601 1.52761 19.3792 1.49951 19.5 1.49951C19.6208 1.49951 19.7399 1.52761 19.8479 1.58159C19.956 1.63557 20.05 1.71394 20.1225 1.81051L21.9863 4.58251C22.3048 5.05112 22.483 5.60089 22.5 6.16726C22.4763 6.94021 22.1473 7.67226 21.585 8.20318C21.0227 8.73409 20.273 9.02061 19.5 9.00001V9.00001ZM19.5 3.57226L18.258 5.41951C18.1028 5.63923 18.0133 5.89858 18 6.16726C18.0435 6.53451 18.2203 6.87303 18.4967 7.11867C18.7732 7.3643 19.1302 7.49997 19.5 7.49997C19.8698 7.49997 20.2268 7.3643 20.5033 7.11867C20.7797 6.87303 20.9565 6.53451 21 6.16726C20.9832 5.88402 20.8856 5.61152 20.7188 5.38201L19.5 3.57226Z" fill="#1C2451"/>
<path d="M17.625 22.5H6.37502C5.16681 22.5013 4.00122 22.0536 3.10452 21.2438C2.20783 20.4341 1.64401 19.32 1.52251 18.1179C1.40101 16.9158 1.73051 15.7115 2.44703 14.7387C3.16355 13.7659 4.21598 13.094 5.40002 12.8535C5.7196 11.3398 6.54976 9.98202 7.75136 9.00762C8.95297 8.03322 10.453 7.50146 12 7.50146C13.547 7.50146 15.0471 8.03322 16.2487 9.00762C17.4503 9.98202 18.2804 11.3398 18.6 12.8535C19.784 13.094 20.8365 13.7659 21.553 14.7387C22.2695 15.7115 22.599 16.9158 22.4775 18.1179C22.356 19.32 21.7922 20.4341 20.8955 21.2438C19.9988 22.0536 18.8332 22.5013 17.625 22.5V22.5ZM12 8.99999C10.7195 9.0012 9.48364 9.47034 8.52489 10.3191C7.56615 11.1679 6.95067 12.3378 6.79427 13.6087L6.71927 14.2177L6.10802 14.2657C5.23745 14.332 4.42654 14.7334 3.84588 15.3854C3.26521 16.0374 2.96008 16.8892 2.99467 17.7616C3.02926 18.634 3.40087 19.459 4.03133 20.063C4.66179 20.6669 5.50194 21.0028 6.37502 21H17.625C18.4981 21.0028 19.3382 20.6669 19.9687 20.063C20.5992 19.459 20.9708 18.634 21.0054 17.7616C21.04 16.8892 20.7348 16.0374 20.1542 15.3854C19.5735 14.7334 18.7626 14.332 17.892 14.2657L17.2808 14.2177L17.2065 13.6087C17.0498 12.3378 16.4341 11.168 15.4753 10.3193C14.5164 9.47051 13.2805 9.00134 12 8.99999V8.99999Z" fill="#1C2451"/>
</svg>
